<svg version="1.1" xmlns="http://www.w3.org/2000/svg" viewBox="0 0 1280.950755417904 666.7011410702531" width="2561.901510835808" height="1333.4022821405063" filter="invert(93%) hue-rotate(180deg)">
  <!-- svg-source:excalidraw -->
  
  <defs>
    <style>
      @font-face {
        font-family: "Virgil";
        src: url("https://excalidraw.com/Virgil.woff2");
      }
      @font-face {
        font-family: "Cascadia";
        src: url("https://excalidraw.com/Cascadia.woff2");
      }
    </style>
  </defs>
  <rect x="0" y="0" width="1280.950755417904" height="666.7011410702531" fill="#ffffff"></rect><g transform="translate(40.025363498263914 10) rotate(0 133 22.5)"><text x="0" y="32" font-family="Virgil, Segoe UI Emoji" font-size="36px" fill="#087f5b" text-anchor="start" style="white-space: pre;" direction="ltr">NFgene Project</text></g><g transform="translate(45.479908952809296 51.5) rotate(0 121 52.5)"><text x="0" y="25" font-family="Virgil, Segoe UI Emoji" font-size="28px" fill="#087f5b" text-anchor="start" style="white-space: pre;" direction="ltr">- share knowledge</text><text x="0" y="60" font-family="Virgil, Segoe UI Emoji" font-size="28px" fill="#087f5b" text-anchor="start" style="white-space: pre;" direction="ltr">- create value</text><text x="0" y="95" font-family="Virgil, Segoe UI Emoji" font-size="28px" fill="#087f5b" text-anchor="start" style="white-space: pre;" direction="ltr">- build community</text></g><g transform="translate(548.2071886158953 34.09090215509582) rotate(0 344.50000000000006 62.5)"><text x="0" y="18" font-family="Virgil, Segoe UI Emoji" font-size="20px" fill="#d9480f" text-anchor="start" style="white-space: pre;" direction="ltr">Overall Project Goal:</text><text x="0" y="43" font-family="Virgil, Segoe UI Emoji" font-size="20px" fill="#d9480f" text-anchor="start" style="white-space: pre;" direction="ltr"> - a more consolidated and searchable data source for genome data</text><text x="0" y="68" font-family="Virgil, Segoe UI Emoji" font-size="20px" fill="#d9480f" text-anchor="start" style="white-space: pre;" direction="ltr"> - a community driven process for updating genome research</text><text x="0" y="93" font-family="Virgil, Segoe UI Emoji" font-size="20px" fill="#d9480f" text-anchor="start" style="white-space: pre;" direction="ltr"> - create a mechanism to fund further research</text><text x="0" y="118" font-family="Virgil, Segoe UI Emoji" font-size="20px" fill="#d9480f" text-anchor="start" style="white-space: pre;" direction="ltr"> - drive education through NFT mints</text></g><g transform="translate(113.02529414013202 268.4091047807176) rotate(0 44.5 12.5)"><text x="0" y="17" font-family="Virgil, Segoe UI Emoji" font-size="20px" fill="#10f52f" text-anchor="start" style="white-space: pre;" direction="ltr">- phase 1</text></g><g transform="translate(1027.0254189847697 271.5454857566142) rotate(0 49 12.5)"><text x="0" y="17" font-family="Virgil, Segoe UI Emoji" font-size="20px" fill="#ff00ff" text-anchor="start" style="white-space: pre;" direction="ltr">- phase 3</text></g><g transform="translate(531.6162725891735 270.90910478071737) rotate(0 49 12.5)"><text x="0" y="17" font-family="Virgil, Segoe UI Emoji" font-size="20px" fill="#1864ab" text-anchor="start" style="white-space: pre;" direction="ltr">- phase 2</text></g><g stroke-linecap="round"><g transform="translate(12.843475958313604 298.7727290066805) rotate(0 628.177406781627 1.02224179024239)"><path d="M-0.19 0.88 C209.66 0.9, 1048.48 0.21, 1258.11 0.26 M-1.75 0.3 C208.03 0.5, 1047.43 1.95, 1257.15 1.78" stroke="#000000" stroke-width="1" fill="none"></path></g><g transform="translate(12.843475958313604 298.7727290066805) rotate(0 628.177406781627 1.02224179024239)"><path d="M1230.42 11.98 C1235 8.96, 1242.59 8.02, 1257.33 2.37 M1228.07 11.9 C1239.11 7.95, 1247.51 5.13, 1258.09 0.78" stroke="#000000" stroke-width="1" fill="none"></path></g><g transform="translate(12.843475958313604 298.7727290066805) rotate(0 628.177406781627 1.02224179024239)"><path d="M1230.43 -8.54 C1235.04 -7.11, 1242.63 -3.61, 1257.33 2.37 M1228.08 -8.62 C1239.15 -5.65, 1247.54 -1.55, 1258.09 0.78" stroke="#000000" stroke-width="1" fill="none"></path></g></g><g stroke-linecap="round" transform="translate(10 362.136365370317) rotate(0 155.45454545454544 73.18181818181819)"><path d="M0.2 0.81 C115.89 -0.19, 230.74 0.91, 311.36 -0.12 M0.62 -0.28 C95.15 -1.15, 191.88 -0.2, 310.95 -0.09 M309.88 -0.92 C309.96 43.31, 308.81 90.14, 310.57 146.89 M311.49 0.22 C310.58 47.21, 311.84 94.15, 311.89 147.11 M310.82 146.5 C211.1 146.2, 109.25 146.62, -0.65 145.55 M311.39 146.02 C217.89 146.84, 124 146.85, -0.56 146.06 M0.82 145.95 C-1.08 100.9, 2.06 56.48, 1.34 -1.75 M0.06 145.76 C-0.46 100.5, 0.57 55.14, -0.83 -0.69" stroke="#10f52f" stroke-width="1" fill="none"></path></g><g transform="translate(23.636363636363512 373.68181991577137) rotate(0 140 17.5)"><text x="0" y="25" font-family="Virgil, Segoe UI Emoji" font-size="28px" fill="#000000" text-anchor="start" style="white-space: pre;" direction="ltr">NFgene Genesis Mint</text></g><g transform="translate(26.36363636363626 413.6818199157714) rotate(0 135 31.5)"><text x="0" y="14" font-family="Virgil, Segoe UI Emoji" font-size="16px" fill="#10f52f" text-anchor="start" style="white-space: pre;" direction="ltr">- 20,000 Unique NFTs</text><text x="0" y="35" font-family="Virgil, Segoe UI Emoji" font-size="16px" fill="#10f52f" text-anchor="start" style="white-space: pre;" direction="ltr">- airdrop to research community</text><text x="0" y="56" font-family="Virgil, Segoe UI Emoji" font-size="16px" fill="#10f52f" text-anchor="start" style="white-space: pre;" direction="ltr">- free access to all NFgene data</text></g><g transform="translate(27.363636363636374 476.68181991577154) rotate(0 71 10.5)"><text x="0" y="15" font-family="Virgil, Segoe UI Emoji" font-size="16px" fill="#1864ab" text-anchor="start" style="white-space: pre;" direction="ltr">- DAO governance</text></g><g stroke-linecap="round"><g transform="translate(21.025294140131905 323.7727290066806) rotate(0 138.37525663281025 -0.5212601988935717)"><path d="M-0.36 0.12 C45.69 0.37, 231.07 0.56, 277.11 0.42 M1.65 -0.87 C47.54 -0.88, 231.02 -1.66, 276.56 -1.49" stroke="#10f52f" stroke-width="1" fill="none"></path></g></g><g stroke-linecap="round" transform="translate(346.4545940052385 360.2272813970393) rotate(0 253.1818181818182 145.90909090909093)"><path d="M285.3 1.33 C307.43 0.54, 332.07 7.19, 353.01 12.19 C373.95 17.19, 393.14 23.14, 410.94 31.31 C428.73 39.48, 446.41 50.48, 459.78 61.21 C473.14 71.95, 483.61 83.43, 491.13 95.72 C498.64 108.01, 502.97 121.83, 504.86 134.95 C506.74 148.07, 506.89 161.57, 502.43 174.44 C497.97 187.3, 488.5 200.62, 478.1 212.16 C467.7 223.7, 455.16 234.17, 440.02 243.68 C424.87 253.19, 406.8 262.04, 387.22 269.2 C367.64 276.37, 344.5 282.74, 322.54 286.64 C300.58 290.55, 278.08 292.49, 255.47 292.63 C232.86 292.76, 208.83 290.89, 186.9 287.46 C164.97 284.03, 143.3 278.83, 123.88 272.04 C104.45 265.24, 86.01 256.37, 70.37 246.7 C54.73 237.02, 40.92 225.53, 30.04 213.99 C19.15 202.45, 9.89 190.4, 5.05 177.44 C0.21 164.47, -0.47 149.48, 1.01 136.21 C2.48 122.94, 6.53 110.06, 13.91 97.83 C21.29 85.59, 32.37 73.54, 45.28 62.77 C58.19 52, 73.84 41.73, 91.36 33.19 C108.87 24.66, 129.61 16.86, 150.38 11.56 C171.15 6.25, 192.65 2.93, 215.98 1.38 C239.3 -0.17, 277.44 1.76, 290.3 2.25 C303.16 2.74, 293.78 1.93, 293.13 4.32 M324.67 7.05 C346.58 8.03, 366.58 14.91, 385.54 21.8 C404.5 28.7, 422.59 38.61, 438.4 48.42 C454.22 58.23, 470.15 69.23, 480.43 80.67 C490.72 92.11, 495.9 104.39, 500.14 117.07 C504.38 129.75, 507.35 143.71, 505.87 156.76 C504.4 169.81, 499.33 183.18, 491.3 195.38 C483.28 207.59, 470.89 219.06, 457.71 229.99 C444.54 240.92, 430.02 252.82, 412.24 260.97 C394.47 269.12, 372.37 273.99, 351.04 278.89 C329.72 283.79, 306.76 288.55, 284.29 290.38 C261.82 292.21, 238.77 291.71, 216.22 289.89 C193.67 288.07, 169.59 284.71, 149.02 279.47 C128.45 274.23, 110.05 267.02, 92.8 258.45 C75.56 249.87, 58.5 238.95, 45.55 228.03 C32.59 217.11, 22.81 205.3, 15.07 192.93 C7.33 180.56, 0.88 166.82, -0.89 153.81 C-2.66 140.8, -0.72 127.8, 4.45 114.87 C9.62 101.94, 19.4 87.97, 30.14 76.24 C40.89 64.51, 53.34 54.01, 68.9 44.5 C84.45 34.98, 103.75 25.54, 123.48 19.13 C143.21 12.73, 165.37 9.05, 187.27 6.06 C209.16 3.07, 232.11 1.03, 254.85 1.17 C277.59 1.32, 312.43 5.69, 323.69 6.94 C334.96 8.19, 323.49 6.73, 322.45 8.69" stroke="#1864ab" stroke-width="1" fill="none"></path></g><g transform="translate(503.7273212779661 380.3181904879484) rotate(0 83.5 17.5)"><text x="0" y="25" font-family="Virgil, Segoe UI Emoji" font-size="28px" fill="#000000" text-anchor="start" style="white-space: pre;" direction="ltr">NFgene DAO</text></g><g transform="translate(385.5455030961472 440.3181904879484) rotate(0 223.5 52.5)"><text x="0" y="14" font-family="Virgil, Segoe UI Emoji" font-size="16px" fill="#1864ab" text-anchor="start" style="white-space: pre;" direction="ltr">- community of NFgene holders</text><text x="0" y="35" font-family="Virgil, Segoe UI Emoji" font-size="16px" fill="#1864ab" text-anchor="start" style="white-space: pre;" direction="ltr">- owns and controls all NFgene project contracts</text><text x="0" y="56" font-family="Virgil, Segoe UI Emoji" font-size="16px" fill="#1864ab" text-anchor="start" style="white-space: pre;" direction="ltr">- accrues fees from project royalties</text><text x="0" y="77" font-family="Virgil, Segoe UI Emoji" font-size="16px" fill="#1864ab" text-anchor="start" style="white-space: pre;" direction="ltr">- approves updates to NFgene database</text><text x="0" y="98" font-family="Virgil, Segoe UI Emoji" font-size="16px" fill="#1864ab" text-anchor="start" style="white-space: pre;" direction="ltr">- provides research grants for research/accomplishments</text></g><g transform="translate(465.8182303688751 551.3636450334028) rotate(0 133 25)"><text x="0" y="18" font-family="Virgil, Segoe UI Emoji" font-size="20px" fill="#000000" text-anchor="start" style="white-space: pre;" direction="ltr">- community driven goals</text><text x="0" y="43" font-family="Virgil, Segoe UI Emoji" font-size="20px" fill="#000000" text-anchor="start" style="white-space: pre;" direction="ltr">- decentralized peer review</text></g><g stroke-linecap="round"><g transform="translate(399.5253010759453 323.9545541243119) rotate(0 174.1107242184607 0.8468897202280914)"><path d="M-0.79 0.27 C57.51 0.5, 290.76 0.92, 349.01 0.83 M1 -0.64 C59.28 -0.16, 290.62 2.15, 348.49 2.33" stroke="#1864ab" stroke-width="1" fill="none"></path></g></g><g stroke-linecap="round"><g transform="translate(896.525210910373 327.8636485013095) rotate(0 174.51554846446584 -0.22868268837413552)"><path d="M-0.33 -0.3 C57.68 -0.15, 289.1 1.07, 347.17 1.12 M1.7 -1.51 C60.15 -1.75, 291.75 -1.29, 349.36 -0.89" stroke="#ff00ff" stroke-width="1" fill="none"></path></g></g><g stroke-linecap="round" transform="translate(911.6363150856708 365.8636485013095) rotate(0 176.6918979991567 145.4187462844718)"><path d="M1.28 -0.1 C88.44 -1.04, 176.96 1.2, 353.79 0.09 M-0.6 -0.53 C117.18 -0.35, 233.55 -1.13, 353.19 -0.35 M353.94 0.62 C356.65 95.33, 356.37 193.72, 354.08 290.32 M353.89 -0.14 C351.36 97.91, 351.76 196.48, 353.95 290.48 M353.97 290.94 C270.61 293.06, 184.95 291.42, -0.07 291.65 M353.09 291.35 C281.69 288.68, 211 288.75, -0.01 291.32 M0.65 291.91 C-1.91 218.21, -3.57 145.12, -1.12 -0.12 M-0.14 291.07 C-0.58 225.48, -1.51 160.42, 0.01 -0.49" stroke="#ff00ff" stroke-width="1" fill="none"></path></g><g transform="translate(965.3397546635528 379.04129922126026) rotate(0 108.21920009055646 17.374642216373672)"><text x="0" y="24.74928443274733" font-family="Virgil, Segoe UI Emoji" font-size="27.799427546197975px" fill="#000000" text-anchor="start" style="white-space: pre;" direction="ltr">NFgene projects</text></g><g stroke-linecap="round" transform="translate(938.6963166240217 590.9668053202037) rotate(0 7.446275235588814 9.928366980784972)"><path d="M7.44 1.02 C8.69 2.23, 10.19 6.03, 15.99 9.38 M8.5 0.18 C10.49 3.54, 13.46 7.74, 14.55 9.6 M13.89 10.22 C13.34 12.8, 10.82 17.19, 7.45 20.09 M15.44 10.52 C14.06 11.57, 12.17 14.33, 7.58 19.92 M8.55 20.75 C4.31 16.07, 2.13 11.86, 0.45 9.59 M7.55 19.65 C5.69 16.22, 2.4 12.78, -0.09 10.06 M0.52 8.86 C0.54 6.67, 4.18 6.48, 7.82 -0.44 M0.08 9.39 C1.49 7.46, 2.83 5.4, 7.79 -0.12" stroke="#000000" stroke-width="1" fill="none"></path></g><g transform="translate(961.531560679825 592.4560603673215) rotate(0 129 10)"><text x="0" y="14" font-family="Virgil, Segoe UI Emoji" font-size="15.885387169256012px" fill="#000000" text-anchor="start" style="white-space: pre;" direction="ltr">Protein Structure NFT collection</text></g><g transform="translate(959.049468934628 626.7089264510267) rotate(0 118.5 10)"><text x="0" y="14" font-family="Virgil, Segoe UI Emoji" font-size="15.885387169256049px" fill="#000000" text-anchor="start" style="white-space: pre;" direction="ltr">DNA sequences NFT collection</text></g><g stroke-linecap="round" transform="translate(939.1927349730614 624.72325305487) rotate(0 7.446275235588814 9.928366980784972)"><path d="M7.42 1.14 C10.34 3.72, 13.21 7.78, 15.99 10.4 M7.51 0.46 C10.53 2.35, 11.48 5.96, 14.6 10.24 M16.05 10.46 C12.98 12.3, 10.17 15.14, 7.54 19.05 M15.34 10.56 C13.57 12.34, 11.94 14.17, 7.48 19.46 M6.88 20.85 C6.75 18.64, 5.51 14.26, -0.08 11.19 M7.37 20.41 C4.89 16.92, 3.06 13.7, -0.22 10.54 M-0.03 9.15 C2.3 7.23, 4.69 5.74, 6.74 -0.53 M0.25 9.54 C2.62 7.02, 5.99 2.86, 8.08 -0.26" stroke="#000000" stroke-width="1" fill="none"></path></g><g transform="translate(938.6963166240213 559.1960309816873) rotate(0 45.17406976257189 12.4104587259813)"><text x="0" y="16.820917451962583" font-family="Virgil, Segoe UI Emoji" font-size="19.856733961569855px" fill="#000000" text-anchor="start" style="white-space: pre;" direction="ltr">examples:</text></g><g transform="translate(923.8211291075403 426.1559134391671) rotate(0 102.75859825112502 12.4104587259813)"><text x="0" y="16.820917451962583" font-family="Virgil, Segoe UI Emoji" font-size="19.85673396156995px" fill="#ff00ff" text-anchor="start" style="white-space: pre;" direction="ltr">Mint collectible NFTs</text></g><g transform="translate(924.8139658056215 452.9625042872859) rotate(0 157.5 50)"><text x="0" y="14" font-family="Virgil, Segoe UI Emoji" font-size="15.885387169255921px" fill="#ff00ff" text-anchor="start" style="white-space: pre;" direction="ltr">- partner with artists to generate</text><text x="0" y="34" font-family="Virgil, Segoe UI Emoji" font-size="15.885387169255921px" fill="#ff00ff" text-anchor="start" style="white-space: pre;" direction="ltr">  unique NFT collections based on</text><text x="0" y="54" font-family="Virgil, Segoe UI Emoji" font-size="15.885387169255921px" fill="#ff00ff" text-anchor="start" style="white-space: pre;" direction="ltr">  NFgene data to promote education </text><text x="0" y="74" font-family="Virgil, Segoe UI Emoji" font-size="15.885387169255921px" fill="#ff00ff" text-anchor="start" style="white-space: pre;" direction="ltr">- develop a royalty model to further</text><text x="0" y="94" font-family="Virgil, Segoe UI Emoji" font-size="15.885387169255921px" fill="#ff00ff" text-anchor="start" style="white-space: pre;" direction="ltr">  funding for the DAO and new projects</text></g><g transform="translate(439.6535716685047 193.710143759488) rotate(0 151 22.5)"><text x="0" y="32" font-family="Virgil, Segoe UI Emoji" font-size="36px" fill="#364fc7" text-anchor="start" style="white-space: pre;" direction="ltr">Project Roadmap</text></g></svg>