<svg version="1.1" xmlns="http://www.w3.org/2000/svg" viewBox="0 0 858.44810431633 731.954588047387" width="1716.89620863266" height="1463.909176094774" filter="invert(93%) hue-rotate(180deg)">
  <!-- svg-source:excalidraw -->
  
  <defs>
    <style>
      @font-face {
        font-family: "Virgil";
        src: url("https://excalidraw.com/Virgil.woff2");
      }
      @font-face {
        font-family: "Cascadia";
        src: url("https://excalidraw.com/Cascadia.woff2");
      }
    </style>
  </defs>
  <rect x="0" y="0" width="858.44810431633" height="731.954588047387" fill="#ffffff"></rect><g transform="translate(296.5056647893625 10) rotate(0 159 22.5)"><text x="0" y="32" font-family="Virgil, Segoe UI Emoji" font-size="36px" fill="#000000" text-anchor="start" style="white-space: pre;" direction="ltr">NFgene Ecosystem</text></g><g transform="translate(367.2381468616454 208.96054129718232) rotate(0 62 24.5)"><text x="0" y="17.5" font-family="Virgil, Segoe UI Emoji" font-size="20px" fill="#5c940d" text-anchor="start" style="white-space: pre;" direction="ltr">Genesis Mint</text><text x="0" y="42" font-family="Virgil, Segoe UI Emoji" font-size="20px" fill="#5c940d" text-anchor="start" style="white-space: pre;" direction="ltr">   Holders</text></g><g stroke-linecap="round" transform="translate(311.0764308243197 187.13725841957785) rotate(0 116.81820678710938 104.99998474121094)"><path d="M115.1 -0.2 C128.48 -2.08, 143.18 2.44, 156.42 6.79 C169.67 11.14, 184.03 17.58, 194.55 25.88 C205.08 34.18, 213.29 45.5, 219.59 56.58 C225.89 67.65, 230.51 79.97, 232.36 92.34 C234.22 104.7, 234.35 118.33, 230.74 130.76 C227.14 143.2, 219.14 156.44, 210.72 166.94 C202.3 177.45, 191.74 187.06, 180.2 193.8 C168.67 200.54, 155.1 204.85, 141.51 207.39 C127.92 209.93, 112.67 210.89, 98.67 209.04 C84.67 207.18, 69.83 202.7, 57.52 196.27 C45.2 189.84, 33.33 180.63, 24.77 170.48 C16.2 160.33, 10.33 147.43, 6.12 135.36 C1.92 123.28, -1.39 110.4, -0.47 98.05 C0.45 85.7, 5.63 72.9, 11.64 61.23 C17.65 49.57, 25.52 36.91, 35.59 28.05 C45.65 19.2, 57.92 12.69, 72.03 8.1 C86.13 3.51, 110.81 1.47, 120.23 0.52 C129.66 -0.43, 128.42 0.82, 128.58 2.39 M124.5 1.31 C138.18 0.21, 154.25 4.32, 167.07 9.46 C179.88 14.6, 191.84 23.16, 201.39 32.14 C210.93 41.12, 218.8 51.52, 224.33 63.32 C229.85 75.13, 233.95 90.3, 234.54 102.97 C235.14 115.65, 232.64 127.86, 227.9 139.39 C223.15 150.92, 215.48 162.45, 206.08 172.16 C196.68 181.87, 183.79 191.7, 171.52 197.63 C159.24 203.57, 146.31 206.49, 132.42 207.78 C118.54 209.08, 102.08 208.27, 88.2 205.42 C74.32 202.57, 60.74 197.62, 49.17 190.67 C37.59 183.71, 26.74 174.03, 18.76 163.69 C10.79 153.36, 4.03 140.94, 1.32 128.65 C-1.38 116.37, -0.02 102.6, 2.51 89.99 C5.04 77.39, 9.43 64.19, 16.51 53.03 C23.58 41.88, 34.09 30.91, 44.97 23.04 C55.84 15.18, 68.67 9.51, 81.75 5.84 C94.83 2.17, 116.28 1.73, 123.45 1.02 C130.62 0.3, 124.88 -0.25, 124.76 1.56" stroke="#1864ab" stroke-width="1" fill="none"></path></g><g transform="translate(367.1472655139901 329.39989608776364) rotate(0 59.5 24.5)"><text x="0" y="17.5" font-family="Virgil, Segoe UI Emoji" font-size="20px" fill="#1864ab" text-anchor="start" style="white-space: pre;" direction="ltr">NFgene DAO</text><text x="0" y="42" font-family="Virgil, Segoe UI Emoji" font-size="20px" fill="#1864ab" text-anchor="start" style="white-space: pre;" direction="ltr"> governance</text></g><g stroke-linecap="round" transform="translate(244.51070274272251 158.8544554139355) rotate(0 13.6363525390625 16.81817626953125)"><path d="M13.56 1.08 C17.39 5.46, 19.53 8.55, 25.44 16.07 M14.7 -0.17 C17.42 4.3, 19.86 8.82, 27.41 17.45 M26.78 18.8 C21.18 21.81, 17.64 26.8, 14.25 32.42 M27.81 16.39 C22.76 23.28, 18.4 30.4, 14.46 33.73 M12.32 34.49 C8.71 27.6, 4.68 23.08, 0.21 16.19 M14.78 34.13 C8.97 27.9, 2.93 22.48, 0.29 17.52 M-0.48 16.92 C5.5 14.21, 6.65 8.73, 12.37 -0.68 M0.05 16.99 C5.12 11.47, 9.66 4.11, 14.98 0.52" stroke="#ff00ff" stroke-width="1" fill="none"></path></g><g transform="translate(89.48057850227133 161.05139212726021) rotate(0 74 24.5)"><text x="0" y="17.5" font-family="Virgil, Segoe UI Emoji" font-size="20px" fill="#000000" text-anchor="start" style="white-space: pre;" direction="ltr">DNA sequences</text><text x="0" y="42" font-family="Virgil, Segoe UI Emoji" font-size="20px" fill="#000000" text-anchor="start" style="white-space: pre;" direction="ltr">collection</text></g><g stroke-linecap="round" transform="translate(259.34931900791344 426.59184826332785) rotate(0 13.6363525390625 16.81817626953125)"><path d="M12.92 1.68 C18.57 5.18, 23.09 11.78, 27.43 16.54 M13.83 0.88 C16.86 5.06, 21.05 8.64, 26.59 16.69 M27.18 17.68 C24.57 23.37, 19.88 28.24, 15.58 33.18 M26.67 17.79 C22.25 23.41, 17.45 29.03, 13.37 33.4 M14.36 34.24 C9.46 31.27, 6.52 25.92, 1.24 16.96 M13.53 32.7 C11.03 30.08, 7.18 26.05, -0.88 17.27 M1.51 18.04 C3.47 13.89, 8.86 6.47, 15.22 -0.1 M0.4 16.39 C3.74 12.4, 7.5 7.74, 14.99 0.75" stroke="#ff00ff" stroke-width="1" fill="none"></path></g><g transform="translate(64.74324668803501 431.92002073511605) rotate(0 92.5 24.5)"><text x="0" y="17.5" font-family="Virgil, Segoe UI Emoji" font-size="20px" fill="#000000" text-anchor="start" style="white-space: pre;" direction="ltr">Protein structures</text><text x="0" y="42" font-family="Virgil, Segoe UI Emoji" font-size="20px" fill="#000000" text-anchor="start" style="white-space: pre;" direction="ltr">collection</text></g><g stroke-linecap="round" transform="translate(635.8038478165072 290.77361095864035) rotate(0 13.6363525390625 16.81817626953125)"><path d="M12.79 -0.66 C16.99 2.68, 19.62 7.87, 27.63 16.52 M14.95 0.09 C17.07 3.95, 18.98 7.03, 26.29 17.72 M25.45 17.76 C22.45 21.23, 20.1 25.6, 14.28 33.99 M26.9 17 C22.11 23.79, 18.33 28.82, 13.93 34.58 M12.21 32.94 C9.11 30.18, 6.21 24.21, -0.73 18.26 M14.58 34.11 C10.54 28.34, 5.54 24.22, 0.2 17.56 M-0.6 15.62 C2.15 10.79, 8.6 8.01, 15.13 1.95 M-0.51 17.28 C4.23 11.06, 9.96 5.1, 13.02 -0.58" stroke="#ff00ff" stroke-width="1" fill="none"></path></g><g transform="translate(673.3795856637298 295.34432696883994) rotate(0 69 24.5)"><text x="0" y="17.5" font-family="Virgil, Segoe UI Emoji" font-size="20px" fill="#000000" text-anchor="start" style="white-space: pre;" direction="ltr">RNA molecules</text><text x="0" y="42" font-family="Virgil, Segoe UI Emoji" font-size="20px" fill="#000000" text-anchor="start" style="white-space: pre;" direction="ltr">collection</text></g><g stroke-linecap="round" transform="translate(580.4403224258822 423.7735804410622) rotate(0 13.6363525390625 16.81817626953125)"><path d="M15.83 0.23 C17.08 5.03, 24.24 12.03, 25.45 17.08 M14.98 0.15 C17.84 5.4, 23.26 12.59, 26.49 16.75 M28.13 18.43 C20.76 23.65, 18.14 29.25, 15.93 33.66 M26.92 17.29 C21.95 23.98, 18.35 29.77, 14.77 34.31 M12.3 34.46 C8.32 28.24, 3.81 20.97, -0.91 18.69 M13.29 32.64 C10.98 30.35, 8.67 26.05, 0.03 17.97 M0.39 17.29 C1.6 12.02, 6.95 7.62, 14.78 1.21 M0.43 16.58 C5.75 10.46, 10.63 5.63, 13.67 -0.08" stroke="#ff00ff" stroke-width="1" fill="none"></path></g><g transform="translate(616.2384316923753 427.88973712509) rotate(0 73.5 24.5)"><text x="0" y="17.5" font-family="Virgil, Segoe UI Emoji" font-size="20px" fill="#000000" text-anchor="start" style="white-space: pre;" direction="ltr">gene mutations</text><text x="0" y="42" font-family="Virgil, Segoe UI Emoji" font-size="20px" fill="#000000" text-anchor="start" style="white-space: pre;" direction="ltr">collection</text></g><g stroke-linecap="round" transform="translate(587.2583766251009 156.3190821500466) rotate(0 13.6363525390625 16.81817626953125)"><path d="M13.18 -1.97 C17.24 3.86, 21.24 8.87, 27.78 15.78 M14.25 -0.94 C17.38 3.9, 20.63 8.76, 28.07 17.51 M28.83 15.64 C24.55 20.94, 20.28 26.33, 14.26 34.28 M27.14 17.17 C23.51 21.99, 19.19 27.01, 13.62 33.38 M15.77 31.67 C9.17 31, 8.43 24.9, 1.06 15.24 M14.97 34.27 C10.55 30.3, 6.99 26.79, 0.16 16.37 M-1.7 18.44 C6.09 10.26, 8.22 6.92, 12.96 -0.47 M-0.06 16.51 C5.52 11.51, 9.57 5.73, 14.66 0.66" stroke="#000000" stroke-width="1" fill="none"></path></g><g stroke-linecap="round" transform="translate(194.1674952774447 296.2281702848122) rotate(0 13.6363525390625 16.81817626953125)"><path d="M15.93 1.28 C16.2 4.49, 17.92 8.24, 27.6 15.74 M13.15 0.72 C18.86 4.14, 21.78 10.02, 26.75 16.77 M27.14 16.02 C24.62 22.2, 19.47 26.89, 15.32 34.97 M27.63 17.77 C23.29 22.93, 19.11 27.67, 14.05 33.66 M15.24 32.31 C7.6 27.94, 3.79 20.23, -0.34 16.78 M13.58 33.69 C9.7 28.03, 6.01 24.02, 0.05 16.19 M0.22 18.76 C5.29 10.26, 11.67 5.77, 13.32 -0.04 M-0.12 16.74 C4.66 11.73, 10.24 5.42, 14.74 0.91" stroke="#000000" stroke-width="1" fill="none"></path></g><g stroke-linecap="round" transform="translate(415.5311427383822 477.40996349770285) rotate(0 13.6363525390625 16.81817626953125)"><path d="M13.16 0.12 C17.88 3.72, 22.77 10.64, 27.37 15.37 M14.11 0.88 C19.01 5.97, 24.5 13.1, 26.93 16.98 M27.04 16.49 C21.41 24.71, 17.44 30.66, 15.47 35.45 M26.78 17.83 C23.75 20.39, 20.49 24.69, 13.2 32.91 M12.08 33.81 C9.3 27.87, 3.74 22.14, 1.14 18.86 M13.72 34.18 C8.58 27.01, 3.09 19.97, -0.69 16.24 M-1.46 17.42 C2.49 11.39, 8.33 8.13, 13.81 -0.18 M0.24 16.74 C5.2 11.08, 9.28 3.66, 14.48 -0.85" stroke="#5f3dc4" stroke-width="1" fill="none"></path></g><g stroke-linecap="round"><g transform="translate(594.7105630667947 272.8110832673401) rotate(87.0409807801412 -0.8570646022167239 21.306028697015734)"><path d="M-0.54 -0.65 C-0.92 6.58, -1.77 36.07, -2.24 43.26 M1.37 1.63 C0.86 8.53, -2.7 34.56, -3.09 41.6" stroke="#087f5b" stroke-width="1" fill="none"></path></g><g transform="translate(594.7105630667947 272.8110832673401) rotate(87.0409807801412 -0.8570646022167239 21.306028697015734)"><path d="M-9.42 21.36 C-5.32 25.71, -5.04 33.33, -4.85 41.55 M-8.77 21.98 C-6.1 27.8, -4.8 35.65, -2.48 41.09" stroke="#087f5b" stroke-width="1" fill="none"></path></g><g transform="translate(594.7105630667947 272.8110832673401) rotate(87.0409807801412 -0.8570646022167239 21.306028697015734)"><path d="M5.03 22.79 C4.8 26.64, 0.74 33.84, -4.85 41.55 M5.68 23.42 C3.24 28.58, -0.58 35.92, -2.48 41.09" stroke="#087f5b" stroke-width="1" fill="none"></path></g></g><g stroke-linecap="round"><g transform="translate(594.9473540745421 300.9824588573389) rotate(264.54919731701744 -0.414734535748039 20.887249498749156)"><path d="M-0.65 0.19 C-0.89 7.2, -1.27 34.44, -1.56 41.47 M1.21 -0.75 C0.9 6.42, -1.33 35.13, -2.04 42.52" stroke="#d9480f" stroke-width="1" fill="none"></path></g><g transform="translate(594.9473540745421 300.9824588573389) rotate(264.54919731701744 -0.414734535748039 20.887249498749156)"><path d="M-7.26 23.5 C-7.59 28.19, -4.52 32.22, -2.09 43.61 M-6.64 22.61 C-7.24 26.2, -5.56 30.91, -2.55 42.99" stroke="#d9480f" stroke-width="1" fill="none"></path></g><g transform="translate(594.9473540745421 300.9824588573389) rotate(264.54919731701744 -0.414734535748039 20.887249498749156)"><path d="M7.21 24.73 C2.68 28.98, 1.53 32.66, -2.09 43.61 M7.83 23.84 C4.33 27.12, 3.09 31.59, -2.55 42.99" stroke="#d9480f" stroke-width="1" fill="none"></path></g></g><g stroke-linecap="round"><g transform="translate(562.4859863227111 376.1638812046672) rotate(131.7905619662823 -1.5357701824325432 21.30464855077679)"><path d="M0.32 0.35 C-0.25 7.42, -2.89 36.12, -3.4 43.12 M-0.96 -0.51 C-1.18 6.16, -0.75 34.03, -1.19 41.39" stroke="#087f5b" stroke-width="1" fill="none"></path></g><g transform="translate(562.4859863227111 376.1638812046672) rotate(131.7905619662823 -1.5357701824325432 21.30464855077679)"><path d="M-7.5 19.71 C-4.63 26.98, -3.83 32.69, -1.55 42.6 M-9.05 20.57 C-6.22 28.72, -3.42 35.85, -1.76 41.21" stroke="#087f5b" stroke-width="1" fill="none"></path></g><g transform="translate(562.4859863227111 376.1638812046672) rotate(131.7905619662823 -1.5357701824325432 21.30464855077679)"><path d="M7.02 19.98 C5.45 27.2, 1.82 32.83, -1.55 42.6 M5.47 20.84 C3.34 28.8, 1.18 35.84, -1.76 41.21" stroke="#087f5b" stroke-width="1" fill="none"></path></g></g><g stroke-linecap="round"><g transform="translate(542.6737950087786 396.75751689318133) rotate(309.2987785031585 -0.9520497656426414 21.273787256833174)"><path d="M0.35 -0.96 C-0.05 6, -1.22 34.98, -1.69 42.11 M-0.93 1.15 C-1.47 8.27, -1.86 36.55, -2.25 43.51" stroke="#d9480f" stroke-width="1" fill="none"></path></g><g transform="translate(542.6737950087786 396.75751689318133) rotate(309.2987785031585 -0.9520497656426414 21.273787256833174)"><path d="M-10.46 24.57 C-6.89 30.45, -4.96 37.37, -1.04 44.33 M-9.6 22.79 C-6.33 29.87, -3.9 35.97, -2.43 43.14" stroke="#d9480f" stroke-width="1" fill="none"></path></g><g transform="translate(542.6737950087786 396.75751689318133) rotate(309.2987785031585 -0.9520497656426414 21.273787256833174)"><path d="M4.05 25.04 C2.44 30.79, -0.81 37.54, -1.04 44.33 M4.91 23.27 C3.46 30.05, 1.16 36, -2.43 43.14" stroke="#d9480f" stroke-width="1" fill="none"></path></g></g><g stroke-linecap="round"><g transform="translate(308.19710583460665 379.9572298862764) rotate(54.06308586878139 -1.9147426811139212 20.823335087383214)"><path d="M0.41 -0.18 C0.09 6.78, -2.42 34.76, -3 41.76 M-0.83 -1.32 C-1.27 5.8, -3.68 35.61, -4.24 42.97" stroke="#087f5b" stroke-width="1" fill="none"></path></g><g transform="translate(308.19710583460665 379.9572298862764) rotate(54.06308586878139 -1.9147426811139212 20.823335087383214)"><path d="M-10.22 21.58 C-9.76 25.77, -8.47 32.47, -4.04 43.25 M-10.69 21.92 C-9.22 26.67, -7.51 32.78, -4.56 43.21" stroke="#087f5b" stroke-width="1" fill="none"></path></g><g transform="translate(308.19710583460665 379.9572298862764) rotate(54.06308586878139 -1.9147426811139212 20.823335087383214)"><path d="M4.25 22.72 C1.65 26.72, -0.14 33.18, -4.04 43.25 M3.79 23.05 C1.65 27.49, -0.25 33.32, -4.56 43.21" stroke="#087f5b" stroke-width="1" fill="none"></path></g></g><g stroke-linecap="round"><g transform="translate(323.8819986899716 403.2408669122992) rotate(231.5713024056576 -1.619372055800568 21.190271185543395)"><path d="M-0.18 -0.56 C-0.68 6.33, -2.59 34.45, -3.06 41.74 M-1.74 1.76 C-1.84 8.76, -0.28 36.36, -0.67 42.94" stroke="#d9480f" stroke-width="1" fill="none"></path></g><g transform="translate(323.8819986899716 403.2408669122992) rotate(231.5713024056576 -1.619372055800568 21.190271185543395)"><path d="M-9.01 22.02 C-6.88 28, -2.32 35.06, -0.39 41.93 M-8.68 22.45 C-7.29 27.62, -4.48 32.43, -0.43 42.49" stroke="#d9480f" stroke-width="1" fill="none"></path></g><g transform="translate(323.8819986899716 403.2408669122992) rotate(231.5713024056576 -1.619372055800568 21.190271185543395)"><path d="M5.5 21.91 C3.33 27.9, 3.59 34.99, -0.39 41.93 M5.84 22.34 C3.71 27.43, 3 32.27, -0.43 42.49" stroke="#d9480f" stroke-width="1" fill="none"></path></g></g><g stroke-linecap="round"><g transform="translate(302.7405612655698 166.19057647753732) rotate(122.35182061426072 -1.2736497396510913 20.733886794531713)"><path d="M-0.9 -0.29 C-1.29 6.6, -3.3 34.69, -3.38 41.75 M0.83 -1.48 C0.89 5.51, -0.77 35.5, -1.16 42.95" stroke="#087f5b" stroke-width="1" fill="none"></path></g><g transform="translate(302.7405612655698 166.19057647753732) rotate(122.35182061426072 -1.2736497396510913 20.733886794531713)"><path d="M-7.83 21.08 C-6.99 28.93, -5.14 29.76, -1.06 43.78 M-8.31 23.34 C-5.55 28.72, -4.37 35.11, -1 43.23" stroke="#087f5b" stroke-width="1" fill="none"></path></g><g transform="translate(302.7405612655698 166.19057647753732) rotate(122.35182061426072 -1.2736497396510913 20.733886794531713)"><path d="M6.67 21.85 C4.37 29.42, 3.09 30.09, -1.06 43.78 M6.19 24.11 C4.75 29.31, 1.73 35.48, -1 43.23" stroke="#087f5b" stroke-width="1" fill="none"></path></g></g><g stroke-linecap="round"><g transform="translate(286.22495392822657 189.57564986661794) rotate(299.8600371511371 -0.6531682696006555 21.272440859796518)"><path d="M-0.29 -0.94 C-0.87 6.46, -2.66 36.44, -3.07 43.49 M1.76 1.18 C1.53 8.35, 0.22 35.12, -0.69 41.94" stroke="#d9480f" stroke-width="1" fill="none"></path></g><g transform="translate(286.22495392822657 189.57564986661794) rotate(299.8600371511371 -0.6531682696006555 21.272440859796518)"><path d="M-7.81 20.4 C-2.68 27.84, -4.36 35.38, 0.13 41.73 M-5.55 21.29 C-3.82 28.63, -1.16 37.46, -0.41 41.36" stroke="#d9480f" stroke-width="1" fill="none"></path></g><g transform="translate(286.22495392822657 189.57564986661794) rotate(299.8600371511371 -0.6531682696006555 21.272440859796518)"><path d="M6.66 21.63 C6.92 28.61, 0.36 35.75, 0.13 41.73 M8.92 22.52 C5.07 29.24, 2.15 37.6, -0.41 41.36" stroke="#d9480f" stroke-width="1" fill="none"></path></g></g><g stroke-linecap="round" transform="translate(421.07661392978844 74.68271435219503) rotate(0 13.6363525390625 16.81817626953125)"><path d="M14.12 -1.29 C17.93 6.48, 21.45 11.68, 29.06 17.64 M13.96 0.36 C18.35 5.36, 20.76 9.55, 27.56 17.9 M26.42 15.45 C22.04 22, 19.94 27.29, 13.81 33.6 M27.03 16.47 C22.29 23.75, 18.99 28.7, 14.29 33.84 M12.65 32.27 C6.62 27.04, 2.42 20.34, 1.42 15.82 M14.1 33.05 C10.56 29.95, 8.29 26.63, -0.3 17.37 M-0.44 18.37 C4.23 9.4, 10.49 2.21, 13.12 1.95 M0.22 17.5 C3.84 13.53, 6.1 9.68, 13.09 -0.94" stroke="#5f3dc4" stroke-width="1" fill="none"></path></g><g stroke-linecap="round"><g transform="translate(424.2629192000577 267.4150090706196) rotate(0 -0.3297479324755841 30.35154439692485)"><path d="M0.75 -0.08 C0.66 10.23, -1.26 51.54, -1.41 61.87 M-0.31 -1.16 C0.02 8.81, 0.8 50.01, 0.72 60.21" stroke="#000000" stroke-width="1" fill="none"></path></g><g transform="translate(424.2629192000577 267.4150090706196) rotate(0 -0.3297479324755841 30.35154439692485)"><path d="M-9.89 30.25 C-5.87 38.75, -3.42 45.46, 1.81 59.64 M-8.81 32.33 C-7.02 38.41, -4.85 46.38, 1.21 59.65" stroke="#000000" stroke-width="1" fill="none"></path></g><g transform="translate(424.2629192000577 267.4150090706196) rotate(0 -0.3297479324755841 30.35154439692485)"><path d="M10.63 30.09 C9.93 38.76, 7.67 45.5, 1.81 59.64 M11.71 32.18 C8.3 38.23, 5.25 46.24, 1.21 59.65" stroke="#000000" stroke-width="1" fill="none"></path></g></g><g stroke-linecap="round"><g transform="translate(257.4310056839736 277.9050936556449) rotate(91.53762769252488 -1.5178700425940406 21.289239421393745)"><path d="M-0.01 0.07 C-0.63 7.24, -2.53 36.43, -3.03 43.51 M-1.47 -0.94 C-1.76 5.89, -0.2 34.49, -0.63 41.99" stroke="#d9480f" stroke-width="1" fill="none"></path></g><g transform="translate(257.4310056839736 277.9050936556449) rotate(91.53762769252488 -1.5178700425940406 21.289239421393745)"><path d="M-7.85 21.08 C-3.34 28.32, -2.22 37.92, -1.36 43.43 M-8.69 21.2 C-6.24 28.42, -4.86 32.14, -0.13 41.72" stroke="#d9480f" stroke-width="1" fill="none"></path></g><g transform="translate(257.4310056839736 277.9050936556449) rotate(91.53762769252488 -1.5178700425940406 21.289239421393745)"><path d="M6.67 21.02 C5.92 28.28, 1.79 37.91, -1.36 43.43 M5.83 21.14 C4.23 28.46, 1.56 32.2, -0.13 41.72" stroke="#d9480f" stroke-width="1" fill="none"></path></g></g><g stroke-linecap="round"><g transform="translate(255.60284815900377 306.38209344186566) rotate(269.0458442294011 -0.7910740272977819 21.223652894524832)"><path d="M0.07 -0.6 C-0.23 6.37, -0.92 34.5, -1.3 41.81 M-1.35 1.71 C-1.75 8.83, -1.4 36.43, -1.65 43.04" stroke="#000000" stroke-width="1" fill="none"></path></g><g transform="translate(255.60284815900377 306.38209344186566) rotate(269.0458442294011 -0.7910740272977819 21.223652894524832)"><path d="M-9.71 24.92 C-7.27 30.2, -2.47 35.93, -0.21 42.62 M-9.59 22.76 C-5.83 27.65, -5.72 34.57, -1.92 42.15" stroke="#000000" stroke-width="1" fill="none"></path></g><g transform="translate(255.60284815900377 306.38209344186566) rotate(269.0458442294011 -0.7910740272977819 21.223652894524832)"><path d="M4.81 25.06 C2.3 30.3, 2.16 35.98, -0.21 42.62 M4.92 22.9 C4.7 27.65, 0.82 34.53, -1.92 42.15" stroke="#000000" stroke-width="1" fill="none"></path></g></g><g stroke-linecap="round"><g transform="translate(558.3460997327302 172.79167675956035) rotate(47.81225311917172 -1.4126063645164777 21.456203019199904)"><path d="M-1.04 0.62 C-1.73 7.6, -3.05 36.09, -3.43 43.01 M0.61 -0.1 C0.22 7.05, -0.99 33.98, -1.25 41.22" stroke="#000000" stroke-width="1" fill="none"></path></g><g transform="translate(558.3460997327302 172.79167675956035) rotate(47.81225311917172 -1.4126063645164777 21.456203019199904)"><path d="M-6.65 19.33 C-4.14 26.76, -3.25 33.84, -0.92 42.99 M-7.37 20.85 C-4.92 29.38, -1.74 37.62, -0.69 42.09" stroke="#000000" stroke-width="1" fill="none"></path></g><g transform="translate(558.3460997327302 172.79167675956035) rotate(47.81225311917172 -1.4126063645164777 21.456203019199904)"><path d="M7.86 19.93 C5.17 27.02, 0.86 33.89, -0.92 42.99 M7.14 21.44 C3.9 29.84, 1.4 37.84, -0.69 42.09" stroke="#000000" stroke-width="1" fill="none"></path></g></g><g stroke-linecap="round"><g transform="translate(576.0839736887697 194.4735304662545) rotate(225.3204696560479 -0.8998060815592908 20.758661638107185)"><path d="M0.62 -1 C0.13 6.09, -1.26 34.4, -1.8 41.46 M-0.51 1.09 C-1.2 8.39, -1.92 35.67, -2.42 42.52" stroke="#d9480f" stroke-width="1" fill="none"></path></g><g transform="translate(576.0839736887697 194.4735304662545) rotate(225.3204696560479 -0.8998060815592908 20.758661638107185)"><path d="M-10.39 23.3 C-7.96 29.81, -5.64 38.46, -0.65 44.35 M-8.87 22.41 C-5.97 29.85, -3.54 36.38, -1.55 42.32" stroke="#d9480f" stroke-width="1" fill="none"></path></g><g transform="translate(576.0839736887697 194.4735304662545) rotate(225.3204696560479 -0.8998060815592908 20.758661638107185)"><path d="M4.12 23.99 C0.86 30.3, -2.52 38.68, -0.65 44.35 M5.63 23.1 C3.66 30.36, 1.23 36.66, -1.55 42.32" stroke="#d9480f" stroke-width="1" fill="none"></path></g></g><g stroke-linecap="round"><g transform="translate(436.7545466954293 114.08544478962767) rotate(358.44418975186545 -1.6715380952971373 21.576922646546734)"><path d="M0.09 1.17 C-0.54 7.9, -2.9 34.62, -3.43 41.4 M-1.33 0.74 C-1.62 7.51, -0.77 35.4, -1.24 42.42" stroke="#087f5b" stroke-width="1" fill="none"></path></g><g transform="translate(436.7545466954293 114.08544478962767) rotate(358.44418975186545 -1.6715380952971373 21.576922646546734)"><path d="M-6.31 20.73 C-7.43 27.92, -4.39 36.96, -3.11 42.93 M-8.14 21.97 C-6.58 27.27, -4.71 31.01, -1.99 41.65" stroke="#087f5b" stroke-width="1" fill="none"></path></g><g transform="translate(436.7545466954293 114.08544478962767) rotate(358.44418975186545 -1.6715380952971373 21.576922646546734)"><path d="M8.21 20.91 C2.33 28.05, 0.59 37.04, -3.11 42.93 M6.38 22.15 C4.63 27.54, 3.19 31.25, -1.99 41.65" stroke="#087f5b" stroke-width="1" fill="none"></path></g></g><g stroke-linecap="round"><g transform="translate(431.30026786580083 419.20381425493963) rotate(535.9524062887417 -1.83570330386965 21.149376570275052)"><path d="M0.17 0.26 C-0.28 7.04, -2.23 34.62, -2.74 41.74 M-1.2 -0.65 C-1.83 6.8, -3.4 36, -3.84 42.95" stroke="#087f5b" stroke-width="1" fill="none"></path></g><g transform="translate(431.30026786580083 419.20381425493963) rotate(535.9524062887417 -1.83570330386965 21.149376570275052)"><path d="M-9.49 22.11 C-9 27.9, -5.06 35.07, -5.29 41.13 M-10.4 23.19 C-8.49 30.26, -5.24 36.43, -3.1 43.81" stroke="#087f5b" stroke-width="1" fill="none"></path></g><g transform="translate(431.30026786580083 419.20381425493963) rotate(535.9524062887417 -1.83570330386965 21.149376570275052)"><path d="M5.01 22.96 C1.18 28.52, 0.82 35.44, -5.29 41.13 M4.1 24.04 C1.09 30.7, -0.56 36.59, -3.1 43.81" stroke="#087f5b" stroke-width="1" fill="none"></path></g></g><g transform="translate(627.8333951294035 159.39335079386592) rotate(0 109.5 24.5)"><text x="0" y="17.5" font-family="Virgil, Segoe UI Emoji" font-size="20px" fill="#000000" text-anchor="start" style="white-space: pre;" direction="ltr">discover a new protein</text><text x="0" y="42" font-family="Virgil, Segoe UI Emoji" font-size="20px" fill="#000000" text-anchor="start" style="white-space: pre;" direction="ltr">interaction</text></g><g transform="translate(42.783041125496766 301.11050709811923) rotate(0 72 24.5)"><text x="0" y="17.5" font-family="Virgil, Segoe UI Emoji" font-size="20px" fill="#000000" text-anchor="start" style="white-space: pre;" direction="ltr">discover a new</text><text x="0" y="42" font-family="Virgil, Segoe UI Emoji" font-size="20px" fill="#000000" text-anchor="start" style="white-space: pre;" direction="ltr">mutation</text></g><g stroke-linecap="round" transform="translate(15.773168247275407 553.7132093112828) rotate(0 12.721704086965701 15.690109299426638)"><path d="M12.18 -0.41 C17.36 7.99, 21.13 12.89, 25.22 17.23 M12.77 -0.06 C15.41 5.21, 19.96 7.73, 25.64 16.91 M26.3 14.09 C22.86 22.92, 18.34 25.98, 13.49 32.27 M25.17 15.25 C20.44 21.95, 15.06 28.14, 12.95 31.06 M12.96 31.06 C8.66 25.74, 7.08 23.85, 0.07 14.63 M12.95 32.17 C9.94 26.52, 6.34 24.42, 0.37 15.15 M0.91 16.18 C2.06 13.6, 6.01 7.74, 14.75 1.51 M-0.89 15.9 C3.42 11.91, 7.06 6.87, 12.83 -0.41" stroke="#ff00ff" stroke-width="1" fill="none"></path></g><g transform="translate(47.45368882298635 561.134193871799) rotate(0 59.240783575243086 9.795720118740974)"><text x="0" y="14.591440237481944" font-family="Virgil, Segoe UI Emoji" font-size="14.926811609510066px" fill="#ff00ff" text-anchor="start" style="white-space: pre;" direction="ltr">NFgene Projects</text></g><g stroke-linecap="round"><g transform="translate(33.66636244952679 591.2111058626426) rotate(90.25129405043909 -1.3241001137255353 13.24724999232265)"><path d="M-0.08 0.78 C-0.59 5.21, -2.16 22.12, -2.57 26.35 M-1.57 0.14 C-1.74 4.21, 0.13 19.85, -0.22 24.42" stroke="#087f5b" stroke-width="1" fill="none"></path></g><g transform="translate(33.66636244952679 591.2111058626426) rotate(90.25129405043909 -1.3241001137255353 13.24724999232265)"><path d="M-4.15 11.54 C-3 15.69, -1.57 21.8, 0.03 24.44 M-5.42 12.76 C-2.56 16.85, -1.82 21.72, 0.04 24.94" stroke="#087f5b" stroke-width="1" fill="none"></path></g><g transform="translate(33.66636244952679 591.2111058626426) rotate(90.25129405043909 -1.3241001137255353 13.24724999232265)"><path d="M4.76 11.31 C2.87 15.54, 1.26 21.72, 0.03 24.44 M3.49 12.53 C2.86 16.72, 0.11 21.68, 0.04 24.94" stroke="#087f5b" stroke-width="1" fill="none"></path></g></g><g transform="translate(57.962448790480266 592.297232493481) rotate(0 120.34741860167514 9.795720118740974)"><text x="0" y="14.591440237481944" font-family="Virgil, Segoe UI Emoji" font-size="14.926811609510068px" fill="#087f5b" text-anchor="start" style="white-space: pre;" direction="ltr">project royalties flowing to DAO</text></g><g transform="translate(61.28267419190615 624.1683079465176) rotate(0 145.53641319272333 9.795720118740974)"><text x="0" y="14.591440237481944" font-family="Virgil, Segoe UI Emoji" font-size="14.926811609510082px" fill="#d9480f" text-anchor="start" style="white-space: pre;" direction="ltr">DAO grants to commission new projects</text></g><g stroke-linecap="round"><g transform="translate(34.67370950615259 618.5240594610286) rotate(90.25129405043909 -1.1535923720246046 12.522027538698637)"><path d="M-1.18 -0.37 C-1.54 4.02, -1.72 22.43, -1.81 26.66 M0.41 -1.62 C-0.14 2.4, -2.25 20.32, -2.71 24.89" stroke="#d9480f" stroke-width="1" fill="none"></path></g><g transform="translate(34.67370950615259 618.5240594610286) rotate(90.25129405043909 -1.1535923720246046 12.522027538698637)"><path d="M-6.2 12.3 C-4.02 16.64, -4.81 20.01, -1.6 24.31 M-5.8 12.23 C-4.73 17.49, -3.57 21.34, -2.08 24.61" stroke="#d9480f" stroke-width="1" fill="none"></path></g><g transform="translate(34.67370950615259 618.5240594610286) rotate(90.25129405043909 -1.1535923720246046 12.522027538698637)"><path d="M2.66 13.29 C1.9 17.21, -1.82 20.26, -1.6 24.31 M3.06 13.22 C0.73 18.1, -1.51 21.57, -2.08 24.61" stroke="#d9480f" stroke-width="1" fill="none"></path></g></g><g stroke-linecap="round" transform="translate(391.54985289243723 555.268620113739) rotate(0 12.721704086965701 15.690109299426638)"><path d="M12.61 -1.33 C18.2 6.03, 21.88 12.39, 25.63 15.68 M12.01 0.3 C16.92 4.12, 18.8 8.55, 24.84 16.91 M25.66 15.5 C22.25 19.73, 20.97 21.23, 11.22 31.88 M26.12 16.06 C21.53 19.58, 19.95 22.8, 13.13 31.77 M11.56 30.92 C8.25 27.57, 4.54 23.11, -0.51 17.44 M13.57 31.02 C10.13 26.1, 4.93 21.9, -0.72 16.82 M0.28 16.92 C4.46 11.16, 3.37 10.71, 11.14 0.31 M0.86 16.58 C4.09 12.78, 7.23 7.35, 13.89 -0.49" stroke="#000000" stroke-width="1" fill="none"></path></g><g transform="translate(423.37799586931396 561.9514926685735) rotate(0 110.59100601915611 9.173447503893158)"><text x="0" y="13.346895007786294" font-family="Virgil, Segoe UI Emoji" font-size="14.926811609510061px" fill="#000000" text-anchor="start" style="white-space: pre;" direction="ltr">research contribution bounties</text></g><g transform="translate(447.70951401902585 591.9393283783522) rotate(0 134.7751392264961 10.14873036344099)"><text x="0" y="14.297460726881958" font-family="Virgil, Segoe UI Emoji" font-size="16.237968581505545px" fill="#000000" text-anchor="start" style="white-space: pre;" direction="ltr">contributions to existing research</text></g><g transform="translate(449.12564067400126 622.2830520901678) rotate(0 182.67714654193742 10.14873036344099)"><text x="0" y="14.297460726881958" font-family="Virgil, Segoe UI Emoji" font-size="16.23796858150556px" fill="#000000" text-anchor="start" style="white-space: pre;" direction="ltr">bounties &amp; recognition accrue to contributors</text></g><g stroke-linecap="round"><g transform="translate(418.85574994780745 588.455312830339) rotate(90.25129405043909 -0.7673834803952104 14.24446388839823)"><path d="M0.1 -0.56 C-0.01 3.86, -0.93 22.94, -1.09 27.44 M-1.31 1.77 C-1.47 6.32, -1.67 24.78, -1.63 29.04" stroke="#000000" stroke-width="1" fill="none"></path></g><g transform="translate(418.85574994780745 588.455312830339) rotate(90.25129405043909 -0.7673834803952104 14.24446388839823)"><path d="M-6.91 17.06 C-4.8 20.75, -4.69 23.14, -0.87 28.18 M-6.08 16.28 C-4.2 21.27, -2.76 26.2, -2.16 29.11" stroke="#000000" stroke-width="1" fill="none"></path></g><g transform="translate(418.85574994780745 588.455312830339) rotate(90.25129405043909 -0.7673834803952104 14.24446388839823)"><path d="M2.46 17.08 C2.09 20.77, -0.28 23.16, -0.87 28.18 M3.28 16.31 C1.54 21.34, -0.64 26.26, -2.16 29.11" stroke="#000000" stroke-width="1" fill="none"></path></g></g><g stroke-linecap="round"><g transform="translate(421.02893572239736 618.2584948014187) rotate(90.25129405043909 -1.0431173096599196 13.11303863687499)"><path d="M0.2 0.06 C-0.11 4.57, -0.98 22.83, -1.52 27.17 M-1.16 -0.95 C-1.62 3.24, -2.34 20.92, -2.28 25.67" stroke="#d9480f" stroke-width="1" fill="none"></path></g><g transform="translate(421.02893572239736 618.2584948014187) rotate(90.25129405043909 -1.0431173096599196 13.11303863687499)"><path d="M-6.45 13.73 C-3.84 16.08, -3.59 21.17, -1.56 25.82 M-6.24 13.64 C-5.44 16.03, -5.26 18.7, -1.98 26.25" stroke="#d9480f" stroke-width="1" fill="none"></path></g><g transform="translate(421.02893572239736 618.2584948014187) rotate(90.25129405043909 -1.0431173096599196 13.11303863687499)"><path d="M2.47 13.89 C2.17 16.2, -0.48 21.24, -1.56 25.82 M2.67 13.8 C1.6 16.08, -0.09 18.71, -1.98 26.25" stroke="#d9480f" stroke-width="1" fill="none"></path></g></g><g stroke-linecap="round" transform="translate(13.126458822980112 663.189192897672) rotate(0 13.899151573518793 17.142295235529616)"><path d="M12.32 0.27 C16.89 6.84, 23.71 9.89, 29.35 19.84 M14.12 0 C18.07 5.6, 21.96 11.74, 26.88 17.46 M28.58 18.61 C24.88 20.65, 21.01 26.7, 13.62 34.57 M27.54 18.63 C24.85 22.4, 20.23 27.31, 14.87 34.67 M15.38 34.11 C7.73 27.27, 6.01 24.59, -1.02 18.4 M14.29 35.06 C8.9 29.41, 5.22 23.61, 0.32 17.95 M1.24 19.76 C3.05 12.51, 6.54 8.23, 15.49 -0.33 M0.53 17.95 C3.48 12.9, 7.81 8.25, 13.47 -0.51" stroke="#5f3dc4" stroke-width="1" fill="none"></path></g><g transform="translate(48.82749333333277 671.721300491297) rotate(0 99.88865059794762 9.173447503893144)"><text x="0" y="13.346895007786294" font-family="Virgil, Segoe UI Emoji" font-size="14.926811609510063px" fill="#000000" text-anchor="start" style="white-space: pre;" direction="ltr">grants to the NFgene DAO</text></g><g stroke-linecap="round"><g transform="translate(28.51246449332848 702.3536161052307) rotate(90.25129405043909 -0.009347646784135577 12.918548107648675)"><path d="M1.2 -0.94 C1.01 3.34, -0.21 22.48, -0.64 26.78 M0.37 1.18 C0.04 5.63, -0.79 21.01, -1.22 25.07" stroke="#087f5b" stroke-width="1" fill="none"></path></g><g transform="translate(28.51246449332848 702.3536161052307) rotate(90.25129405043909 -0.009347646784135577 12.918548107648675)"><path d="M-5.75 13.3 C-2.55 16.74, -3.46 20.55, -2.31 24.39 M-4.84 13.17 C-3.13 16.47, -1.74 21, -0.61 25.27" stroke="#087f5b" stroke-width="1" fill="none"></path></g><g transform="translate(28.51246449332848 702.3536161052307) rotate(90.25129405043909 -0.009347646784135577 12.918548107648675)"><path d="M3.13 13.98 C3.28 17.27, -0.67 20.85, -2.31 24.39 M4.04 13.85 C2.64 16.9, 0.93 21.19, -0.61 25.27" stroke="#087f5b" stroke-width="1" fill="none"></path></g></g><g transform="translate(53.06335251811788 703.6076930396007) rotate(0 152.38115575911388 9.173447503893144)"><text x="0" y="13.346895007786294" font-family="Virgil, Segoe UI Emoji" font-size="14.92681160951007px" fill="#087f5b" text-anchor="start" style="white-space: pre;" direction="ltr">grants from the community fund the DAO</text></g><g stroke-linecap="round"><g transform="translate(10.863722820375187 534.610473189699) rotate(0 418.36032933778984 -0.7427644490926468)"><path d="M0.39 -0.43 C140.04 -0.46, 698.26 -1.18, 837.58 -1.21 M-0.86 -1.7 C138.67 -1.45, 696.82 0.39, 836.75 0.22" stroke="#343a40" stroke-width="1" fill="none"></path></g></g></svg>